<svg version="1.1" id="Layer_1" xmlns="http://www.w3.org/2000/svg" xmlns:xlink="http://www.w3.org/1999/xlink" x="0px" y="0px"
	 width="100%" viewBox="0 0 1200 1200" enable-background="new 0 0 1200 1200" xml:space="preserve">
<path fill="#47704C" opacity="1.000000" stroke="none" 
	d="
M703.000000,1201.000000 
	C468.666656,1201.000000 234.833328,1201.000000 1.000000,1201.000000 
	C1.000000,801.000000 1.000000,401.000000 1.000000,1.000000 
	C401.000000,1.000000 801.000000,1.000000 1201.000000,1.000000 
	C1201.000000,401.000000 1201.000000,801.000000 1201.000000,1201.000000 
	C1035.166626,1201.000000 869.333313,1201.000000 703.000000,1201.000000 
M716.926208,579.934875 
	C716.926208,579.934875 716.835999,579.915466 717.579102,579.915710 
	C725.189941,575.635376 732.803040,571.358887 740.411133,567.073792 
	C750.607849,561.330750 760.800781,555.581116 771.627991,550.148865 
	C775.081543,555.091614 778.560974,560.016541 781.984192,564.980164 
	C797.260925,587.131531 812.588684,609.248169 827.771057,631.464233 
	C846.073303,658.245728 864.312500,685.071106 882.406006,711.993713 
	C885.114197,716.023499 887.390503,717.314941 891.337158,712.668091 
	C885.072937,703.788391 878.585205,694.825745 872.340637,685.696777 
	C851.818420,655.695496 831.406189,625.619080 810.908020,595.601318 
	C799.595093,579.034485 788.194519,562.527588 777.274963,545.432190 
	C779.947937,543.914551 783.065613,543.056030 783.041809,538.872437 
	C782.890747,512.249756 782.887329,485.626129 782.991028,458.274017 
	C783.456787,457.237915 783.855591,456.165344 784.397949,455.170990 
	C798.451904,429.402924 812.552185,403.660095 826.575623,377.875519 
	C835.456787,361.545990 844.169678,345.124878 853.061096,328.801056 
	C866.867432,303.453705 880.741882,278.143341 894.627075,252.839020 
	C901.686279,239.974396 908.896545,227.192383 915.910217,214.303207 
	C919.218262,208.224106 922.224060,201.980606 925.441650,195.664642 
	C923.089111,194.564545 921.372375,193.761765 919.695007,192.977417 
	C916.156982,199.556717 912.801819,205.899445 909.353088,212.190903 
	C896.265015,236.067093 883.071838,259.885895 870.064270,283.805786 
	C860.248413,301.856476 850.727478,320.067383 840.946594,338.137360 
	C826.976013,363.947998 812.933777,389.720184 798.825256,415.455688 
	C793.749146,424.715179 788.392761,433.821014 783.057190,442.065491 
	C783.038452,407.073639 782.919678,372.081238 783.120300,337.090637 
	C783.147095,332.417297 781.573059,329.922485 777.620667,327.760132 
	C767.757080,322.363831 758.127136,316.541168 748.390686,310.911621 
	C733.948303,302.560974 719.494934,294.229340 705.281128,285.243164 
	C721.532837,255.625519 737.784546,226.007874 754.165649,196.154419 
	C751.881653,194.993057 750.171448,194.123489 748.257568,193.150330 
	C732.095886,222.800278 715.959595,252.403656 699.127991,281.930511 
	C695.431702,279.795166 691.721985,277.682861 688.041382,275.520782 
	C665.635132,262.358459 643.235535,249.184799 621.169006,235.347916 
	C627.272034,222.275604 633.375061,209.203293 639.618225,195.830841 
	C637.457214,194.775650 635.830505,193.981339 633.862610,193.020447 
	C627.391174,206.612305 621.107666,219.809525 614.244995,232.669235 
	C611.707275,231.150757 609.052124,229.795746 606.658447,228.076645 
	C602.773499,225.286484 599.313049,225.604233 595.260193,228.078415 
	C586.713135,233.296295 577.887512,238.057892 568.873413,242.372971 
	C562.187561,232.729355 555.501282,223.085953 548.815918,213.442017 
	C534.316223,192.525635 519.727539,171.670288 505.338593,150.678009 
	C484.138489,119.748863 463.074951,88.726089 441.964996,57.735191 
	C431.224701,41.967697 420.523499,26.173552 409.753021,10.426758 
	C409.054077,9.404890 407.911682,8.686365 407.002502,7.851486 
	C405.440430,9.008773 404.171600,9.948797 402.497223,11.189274 
	C403.496399,12.844556 404.325623,14.395325 405.317230,15.834174 
	C418.831726,35.444130 432.404846,55.013729 445.890808,74.643242 
	C462.604401,98.970711 479.257935,123.339493 495.923370,147.700043 
	C512.309204,171.651810 528.719910,195.586731 545.031433,219.589020 
	C551.146240,228.587006 557.012451,237.753983 562.375122,247.178177 
	C549.804993,254.500656 537.225464,261.807129 524.666504,269.148651 
	C491.120758,288.758148 457.611267,308.429871 424.005157,327.935181 
	C420.259827,330.109009 418.425781,332.547150 418.908905,337.012146 
	C419.300079,340.627441 418.894714,344.328949 418.236206,347.717834 
	C411.398926,339.541962 404.485901,331.428009 397.741364,323.176331 
	C386.341187,309.228607 375.117676,295.136261 363.690552,281.210815 
	C350.791351,265.491364 337.715576,249.916885 324.778687,234.228180 
	C311.015839,217.537872 297.184723,200.899628 283.731232,183.962402 
	C281.248657,180.836975 280.281586,182.574402 278.388977,183.839706 
	C275.512329,185.762894 277.643341,186.948990 278.851868,188.370300 
	C280.444794,190.243652 281.975769,192.169495 283.544586,194.063492 
	C294.841766,207.702560 306.187836,221.301498 317.428223,234.987228 
	C329.176819,249.291779 340.805054,263.695160 352.523254,278.024750 
	C360.621246,287.927307 368.803955,297.760529 376.909973,307.656616 
	C385.418549,318.044037 393.911652,328.444519 402.352417,338.887085 
	C408.009857,345.886139 413.564301,352.968445 419.055084,360.943451 
	C419.037079,419.911377 419.038574,478.879333 418.948639,537.847168 
	C418.943665,541.095337 420.128082,542.925049 422.930664,544.543152 
	C435.085663,551.560913 447.100433,558.821533 458.840271,566.650696 
	C452.719452,579.777588 446.627441,592.917969 440.471771,606.028503 
	C427.451111,633.760437 414.414154,661.484680 401.349670,689.195984 
	C395.023010,702.615662 388.569977,715.975769 382.260803,729.403564 
	C370.140076,755.200073 358.081055,781.025513 345.357819,806.319336 
	C345.238556,804.335266 345.018768,802.351318 345.015686,800.367065 
	C344.988068,782.554443 345.027252,764.741760 344.956207,746.929443 
	C344.948547,745.014709 345.958282,742.127258 342.414246,742.082520 
	C335.146454,741.990784 327.876709,742.054993 320.360321,742.054993 
	C320.360321,745.942566 320.360321,749.159973 320.360321,753.000854 
	C322.663208,753.000854 324.645264,753.224243 326.558411,752.956116 
	C331.084442,752.321838 332.180450,754.277466 332.092102,758.571960 
	C331.831879,771.218567 331.999817,783.873962 331.999969,796.525879 
	C332.000122,806.421509 331.999603,806.416199 321.984253,807.120667 
	C321.521179,807.153320 321.075470,807.432434 320.285370,807.718506 
	C320.192871,809.283752 320.221191,810.922363 319.977814,812.519470 
	C319.300476,816.964905 321.149048,818.366699 325.531311,818.088379 
	C330.665314,817.762451 335.842133,818.110596 340.709808,818.798279 
	C332.751465,835.668701 324.793121,852.539062 316.674469,869.749329 
	C318.919678,870.888367 320.741608,871.812744 322.481720,872.695557 
	C328.148163,860.769653 333.774750,849.018372 339.316650,837.227295 
	C342.286346,830.908875 345.110413,824.522034 348.898376,818.057495 
	C350.214905,818.036438 351.661530,818.353882 352.815674,817.910278 
	C354.320312,817.331970 356.871002,815.896118 356.746826,815.271912 
	C356.176270,812.404785 359.667175,807.984436 354.034302,806.098389 
	C357.435425,798.537842 360.746307,790.935120 364.255157,783.424927 
	C373.769012,763.061829 383.367859,742.738464 392.931000,722.398438 
	C404.646912,697.479492 416.352051,672.555420 428.081787,647.642944 
	C430.997498,641.450317 434.026031,635.310791 436.940186,629.117432 
	C446.366089,609.084778 455.762970,589.038452 465.752319,569.330566 
	C471.103027,572.531616 476.442657,575.751282 481.806610,578.929993 
	C495.920776,587.294189 510.045532,595.640503 524.007629,604.715515 
	C519.649231,612.908020 515.364929,621.141052 510.919067,629.285828 
	C494.985474,658.476135 479.010345,687.643799 463.021606,716.803955 
	C458.164978,725.661438 453.121338,734.417175 448.331543,743.310120 
	C443.390503,752.483765 438.654297,761.767761 433.259857,770.678528 
	C427.163025,763.877869 419.417145,761.797119 410.498077,761.900330 
	C399.973358,762.022278 391.738953,766.066467 386.567383,775.087463 
	C380.649353,785.410583 380.488770,796.355103 386.905304,806.434692 
	C394.940552,819.057190 405.154480,820.573853 418.548889,818.493042 
	C430.080444,816.701538 437.739746,809.051025 439.400848,797.513794 
	C440.354401,790.890625 438.451508,783.856323 438.153748,776.358032 
	C447.630829,758.867737 457.053070,741.347473 466.598175,723.894348 
	C479.664856,700.002136 492.886932,676.194824 505.922211,652.285706 
	C514.118896,637.251404 522.095520,622.097168 530.769226,607.308289 
	C552.098022,619.834045 573.452026,632.317200 594.734558,644.921143 
	C599.054504,647.479431 602.991394,647.497620 607.292053,644.907532 
	C617.464661,638.781006 627.752686,632.846130 638.616760,627.138000 
	C646.903992,637.094421 655.317383,646.951416 663.332947,657.121948 
	C664.446289,658.534607 664.350708,661.839539 663.510864,663.670227 
	C661.278137,668.536804 658.249207,673.031067 655.684937,677.753723 
	C644.094238,699.100159 632.554749,720.474365 620.070007,741.945007 
	C616.609619,741.967102 613.144775,742.106628 609.690308,741.974243 
	C606.892883,741.867188 605.917236,743.028748 605.973938,745.755981 
	C606.127869,753.167114 606.112854,760.581848 606.007812,768.721375 
	C601.970276,776.248108 597.932739,783.774841 593.700317,791.664734 
	C595.790283,792.792847 597.624268,793.782776 599.282654,794.677917 
	C601.482605,791.095581 603.660095,787.549866 605.943665,784.935730 
	C605.963318,794.433167 606.100464,803.932556 605.940063,813.426941 
	C605.882446,816.829407 606.878357,818.454895 610.444336,818.017944 
	C611.593323,817.877136 612.789856,817.874939 613.937927,818.020325 
	C617.784119,818.507446 619.148254,817.068054 619.084778,813.041992 
	C618.861633,798.882263 618.991760,784.716858 619.012390,770.553650 
	C619.014282,769.222290 619.188843,767.891174 619.283264,766.559875 
	C625.717346,780.282227 631.523376,793.977539 637.013306,807.798462 
	C641.264771,818.501648 641.089050,818.571350 652.105225,817.991760 
	C652.271484,817.982971 652.439941,817.967529 652.604675,817.983093 
	C655.286133,818.236267 656.017273,816.822083 656.012390,814.376648 
	C655.966492,791.382446 656.003967,768.388000 655.911621,745.394043 
	C655.907349,744.321716 654.959778,742.368958 654.353760,742.329529 
	C650.898010,742.104736 647.264099,741.816956 644.031128,742.741333 
	C643.105774,743.005981 643.058350,747.227600 643.042236,749.637695 
	C642.953796,762.880005 643.000000,776.123230 643.000000,789.366150 
	C642.695740,789.427856 642.391541,789.489502 642.087280,789.551208 
	C636.337158,775.548157 630.587036,761.545166 625.400330,747.020203 
	C640.153625,720.008545 654.906860,692.996948 670.054077,665.264099 
	C697.007690,698.149414 723.587097,730.578125 750.056946,763.918152 
	C750.056946,767.157776 750.056946,770.397461 750.056946,773.731750 
	C752.255127,773.853149 753.572693,773.962891 754.892151,773.992493 
	C761.850952,774.148987 761.986877,774.268616 761.997925,780.948425 
	C762.007812,786.936462 761.629822,792.956543 762.140381,798.900818 
	C762.454407,802.557800 763.514893,806.432495 765.288574,809.627502 
	C769.911011,817.954285 777.843201,819.452515 786.630615,819.053162 
	C794.789307,818.682373 803.594055,811.490295 804.900635,803.487854 
	C805.088135,802.339539 805.022034,800.671082 804.333496,799.943787 
	C801.743835,797.208557 794.923462,798.457581 793.044373,801.804077 
	C790.360107,806.584534 786.263000,808.399963 781.086487,806.989685 
	C775.940979,805.587769 774.807373,801.672974 775.006897,796.986328 
	C775.049316,795.990356 775.112732,794.995361 775.770386,794.271240 
	C778.418701,797.283325 781.067078,800.295410 783.381653,802.927917 
	C785.461548,801.517700 787.047241,800.442566 788.597168,799.391785 
	C783.633423,793.346313 779.317200,788.089478 775.000183,781.949341 
	C775.000183,779.508301 775.000183,777.067322 775.000183,773.966431 
	C782.907776,773.966431 790.140198,773.966431 797.218628,773.966431 
	C799.357605,763.433533 799.025696,763.001160 789.450134,763.000000 
	C788.783875,762.999939 788.117554,763.000000 787.451294,763.000000 
	C775.001831,763.000000 775.099854,762.998962 774.967346,750.444702 
	C774.870544,741.281250 777.005737,742.117126 765.936768,741.957031 
	C762.821716,741.911987 761.856079,743.131653 761.965088,746.079468 
	C762.124878,750.404114 761.879272,754.743713 762.034546,759.068726 
	C762.142639,762.079590 761.152649,763.508850 757.733032,762.219727 
	C753.987488,757.474792 750.327332,752.659363 746.479614,747.998840 
	C736.556458,735.979431 726.495239,724.074036 716.590820,712.039429 
	C703.157166,695.716736 689.851196,679.288879 676.404724,662.976746 
	C674.298462,660.421692 673.578674,658.227600 675.367920,655.073730 
	C681.077820,645.008972 686.539612,634.803223 692.072205,624.638184 
	C700.015686,610.043579 707.937073,595.436951 716.403381,580.741577 
	C716.583801,580.442505 716.764221,580.143433 716.926208,579.934875 
M582.000000,806.473816 
	C582.000000,800.313721 582.000366,794.153564 581.999939,787.993469 
	C581.998840,774.174866 582.010193,760.356323 581.982178,746.537720 
	C581.977966,744.449768 582.492920,741.974915 579.023010,742.013611 
	C573.363281,742.076843 567.695007,741.881470 562.048462,742.161133 
	C560.998779,742.213196 559.364990,743.869934 559.167297,744.991638 
	C558.728882,747.479553 559.030762,750.097961 559.030762,752.663757 
	C562.900513,752.954651 565.801086,753.172729 568.781982,753.396851 
	C568.781982,757.946167 568.781982,761.891235 568.781982,766.334717 
	C567.269287,765.601257 566.053833,765.155579 564.990173,764.473328 
	C557.218384,759.488098 543.012634,761.800903 536.897095,769.457214 
	C530.821289,777.063843 529.406921,785.439941 529.881226,794.846985 
	C530.521851,807.554565 541.721985,820.706177 554.899719,818.924255 
	C559.522888,818.299133 564.028076,816.802124 568.587097,815.703186 
	C569.104248,816.173523 569.943970,817.575073 571.063416,817.853821 
	C579.573303,819.973694 581.998230,818.042786 582.000000,809.460999 
	C582.000183,808.795044 582.000000,808.129089 582.000000,806.473816 
M245.471771,809.974365 
	C248.874817,812.571411 251.919952,816.530823 255.741470,817.534790 
	C274.507477,822.464661 286.919708,816.637512 293.322296,797.129700 
	C293.670776,796.067932 293.141541,793.836548 292.368378,793.448120 
	C289.701202,792.107910 286.744629,791.343872 284.367004,790.522278 
	C282.123138,794.564453 280.164429,797.809692 278.476654,801.190186 
	C274.502899,809.149231 257.876556,810.695984 253.622421,799.951355 
	C251.470337,794.515930 249.804047,788.641541 249.324585,782.849182 
	C248.628494,774.439392 249.694534,766.072693 254.019455,758.401428 
	C256.998230,753.117859 261.854156,751.006958 267.215118,751.391296 
	C272.668793,751.782166 277.240112,754.838684 279.123352,760.501465 
	C280.199951,763.738892 280.915863,767.096252 281.945007,770.966980 
	C284.510010,770.966980 287.335693,771.198303 290.087585,770.848511 
	C291.128967,770.716187 292.802643,769.262268 292.823944,768.377869 
	C293.031036,759.779419 292.948486,751.173950 292.948486,742.719849 
	C283.811493,741.029419 281.819458,741.595947 280.213440,745.899536 
	C277.782867,744.301819 275.521301,742.187988 272.843048,741.164001 
	C261.573486,736.855469 248.452087,742.078308 242.572968,752.881897 
	C235.765045,765.392273 234.993057,778.791687 237.857452,792.291382 
	C239.121552,798.249023 242.532516,803.751221 245.471771,809.974365 
M868.473999,795.000000 
	C872.203125,795.000000 875.932190,795.000000 879.568542,795.000000 
	C880.878967,786.906006 878.523071,780.561951 875.061890,774.672241 
	C866.870850,760.733521 849.796326,759.092163 837.837402,764.247559 
	C823.408569,770.467590 818.770447,785.075134 822.868469,799.482971 
	C827.492310,815.739990 842.939575,821.143555 859.615234,818.591797 
	C865.925110,817.626282 871.638367,815.044312 875.690063,809.387085 
	C873.549072,806.552795 871.418701,803.732666 869.177185,800.765503 
	C861.258240,807.619080 852.699585,809.443115 843.484131,806.040833 
	C838.929077,804.359253 835.365784,801.123901 835.384399,795.000000 
	C846.229553,795.000000 856.856262,795.000000 868.473999,795.000000 
M923.425781,807.974854 
	C915.688477,806.019958 907.951172,804.065002 899.596924,801.954224 
	C898.283936,804.570984 896.626160,807.874756 894.959412,811.196411 
	C907.808655,819.210205 921.215759,820.804504 935.132385,817.897583 
	C945.531860,815.725342 951.293518,806.575745 948.954041,797.414185 
	C947.045593,789.940857 941.030457,787.681641 934.640808,786.135803 
	C927.919800,784.509949 921.050293,783.494690 914.339233,781.834167 
	C912.752441,781.441528 911.540222,779.534912 910.155640,778.324707 
	C911.689087,776.956726 913.050598,774.712585 914.785767,774.372009 
	C922.460083,772.865234 930.268066,772.623291 937.451843,776.324402 
	C940.701843,777.998779 942.311707,777.784546 943.927917,774.387024 
	C946.871033,768.200256 946.567017,767.188660 939.798218,764.855347 
	C938.548889,764.424744 937.336731,763.836609 936.056091,763.554321 
	C925.701477,761.272522 915.417175,760.302246 905.625488,765.753235 
	C896.537292,770.812622 892.865662,782.735413 902.530273,789.793823 
	C905.979858,792.313232 910.421692,793.735413 914.620422,794.905579 
	C920.796387,796.626892 927.197693,797.528992 933.413269,799.128357 
	C934.664062,799.450256 936.317871,801.324097 936.323364,802.489258 
	C936.328857,803.650818 934.706238,805.415771 933.427368,805.867004 
	C930.503723,806.898499 927.354126,807.289246 923.425781,807.974854 
M687.773621,766.101196 
	C676.725891,774.373962 673.528809,785.582336 676.407776,798.550964 
	C679.020142,810.318237 689.941772,820.302185 706.816162,819.094727 
	C718.386047,818.266846 727.064758,813.271545 730.978943,802.467285 
	C734.901917,791.638855 734.922363,780.426392 726.584534,771.229553 
	C716.809631,760.447632 702.219482,758.677246 687.773621,766.101196 
M495.996887,811.503723 
	C495.996887,813.450745 495.996887,815.397705 495.996887,817.999023 
	C498.925537,817.999023 501.238190,817.765015 503.485535,818.048645 
	C507.902374,818.605896 509.186523,816.905640 509.099396,812.492188 
	C508.826385,798.669861 509.070343,784.838318 508.974365,771.011292 
	C508.913605,762.258057 510.536041,763.186768 500.500732,762.941772 
	C497.005188,762.856323 495.849854,764.041687 495.939850,767.517456 
	C496.142334,775.342285 496.672180,783.257019 495.743347,790.975647 
	C495.189911,795.574707 493.061798,800.715393 489.990906,804.126587 
	C483.778168,811.027893 474.115479,808.312439 472.886230,799.273621 
	C471.663696,790.284363 472.131775,781.053894 472.024872,771.927307 
	C471.912781,762.355103 471.342468,761.700500 461.934998,763.147644 
	C460.840088,763.316101 459.142487,765.085632 459.154755,766.095398 
	C459.310364,778.879822 459.220215,791.703735 460.288727,804.425537 
	C460.842834,811.022705 464.505463,816.491394 471.850006,818.452637 
	C480.557129,820.777588 488.497528,818.304871 493.977448,811.201538 
	C494.287903,810.799194 495.300751,810.938660 495.996887,811.503723 
z"/>
<path fill="#00ADB5" opacity="1.000000" stroke="none" 
	d="
M459.166199,565.993835 
	C447.100433,558.821533 435.085663,551.560913 422.930664,544.543152 
	C420.128082,542.925049 418.943665,541.095337 418.948639,537.847168 
	C419.038574,478.879333 419.037079,419.911377 419.448486,360.522888 
	C435.286285,378.777710 450.754608,397.433380 466.167877,416.134460 
	C479.580963,432.408569 492.931854,448.733887 506.471619,465.233246 
	C507.528351,463.341522 508.409790,461.763641 509.541138,459.738373 
	C510.563416,460.932556 511.419128,461.932159 512.375610,463.163177 
	C512.929688,463.247803 513.383057,463.101044 514.046082,462.668365 
	C515.027405,460.571960 515.737610,458.732300 516.580017,456.955322 
	C525.299072,438.563782 534.081299,420.202087 542.762756,401.792877 
	C552.224609,381.728760 561.624878,361.635376 571.002808,341.531860 
	C578.702087,325.026825 586.329407,308.488220 594.342590,291.967896 
	C595.062622,292.306244 595.510315,292.585266 595.783020,292.984009 
	C613.857971,319.415283 631.918823,345.856232 649.979858,372.558167 
	C649.974548,373.169128 649.970276,373.518250 649.934692,374.219299 
	C624.729309,420.756287 599.586060,466.958221 574.337585,513.102539 
	C571.541138,518.213257 568.143860,522.995239 564.929565,527.607178 
	C547.807983,506.530884 530.782043,485.777161 513.674255,464.923645 
	C512.467773,466.599884 511.538422,467.891022 510.439270,469.418121 
	C508.991852,468.176697 507.793945,467.149292 506.296570,465.865021 
	C502.935547,473.099091 499.779816,479.984650 496.544922,486.832764 
	C491.053223,498.458374 485.486023,510.048340 479.997406,521.675415 
	C473.029205,536.436707 466.107788,551.220032 459.166199,565.993835 
z"/>
<path fill="#00ADB5" opacity="1.000000" stroke="none" 
	d="
M782.835205,459.002808 
	C782.887329,485.626129 782.890747,512.249756 783.041809,538.872437 
	C783.065613,543.056030 779.947937,543.914551 776.756104,545.569214 
	C768.637329,534.717896 761.037476,523.729553 753.317566,512.567688 
	C751.844116,514.317200 750.832703,515.518188 749.794067,516.751404 
	C748.499451,515.362610 747.443848,514.230286 746.075806,512.762756 
	C737.863708,527.830811 729.988281,542.441589 721.956360,556.965698 
	C716.019531,567.701294 709.878723,578.324158 703.480591,589.033875 
	C683.422607,600.434326 663.712769,611.798218 643.689392,623.019531 
	C618.980286,593.207764 594.584778,563.538574 570.005981,533.646423 
	C568.776367,535.499878 567.908020,536.808777 566.913269,538.308167 
	C565.564331,537.033264 564.505615,536.032654 563.123047,534.783081 
	C562.888977,534.004883 562.978760,533.475708 563.385986,532.759033 
	C564.130493,531.699463 564.557617,530.827332 565.326782,529.777283 
	C567.017456,530.580688 568.365906,531.562012 570.142944,532.855286 
	C573.800659,526.184998 577.447327,519.574280 581.057861,512.943909 
	C601.683411,475.067780 622.261414,437.165680 642.955750,399.327209 
	C646.735413,392.416412 650.977112,385.758362 655.124634,379.304260 
	C673.920166,406.832855 692.572571,434.057312 711.281860,461.242615 
	C722.737793,477.888489 734.281006,494.474243 745.902832,511.287445 
	C746.285339,511.323944 746.550049,511.160034 747.019287,510.707642 
	C749.634888,505.026276 751.224121,510.553436 753.386414,511.231110 
	C760.555542,498.097473 767.553894,485.130646 774.707703,472.250183 
	C777.220703,467.725464 780.114990,463.412476 782.835205,459.002808 
z"/>
<path fill="#00ADB5" opacity="1.000000" stroke="none" 
	d="
M418.842651,347.992218 
	C418.894714,344.328949 419.300079,340.627441 418.908905,337.012146 
	C418.425781,332.547150 420.259827,330.109009 424.005157,327.935181 
	C457.611267,308.429871 491.120758,288.758148 524.666504,269.148651 
	C537.225464,261.807129 549.804993,254.500656 563.026611,247.113678 
	C565.773071,249.778656 567.983704,252.427887 569.941956,255.252167 
	C576.787170,265.124786 583.545166,275.057861 590.611572,285.369720 
	C591.801270,283.327637 592.653687,281.864532 593.712463,280.047211 
	C595.027588,281.788696 596.011169,283.091125 596.988281,284.619446 
	C596.972900,285.146576 596.962891,285.447754 596.854614,286.099213 
	C595.809387,287.759125 594.861511,289.068665 593.785400,290.045410 
	C592.757751,288.722137 591.858276,287.731628 590.511597,286.248657 
	C563.234192,344.429810 536.353577,401.764648 509.204651,459.671783 
	C508.090546,458.086792 507.747192,457.524445 507.333252,457.020081 
	C482.241760,426.445404 457.114441,395.900024 432.074829,365.282959 
	C427.482574,359.667816 423.244293,353.763214 418.842651,347.992218 
z"/>
<path fill="#00ADB5" opacity="1.000000" stroke="none" 
	d="
M649.965942,373.867371 
	C649.970276,373.518250 649.974548,373.169128 650.336182,372.493530 
	C651.725403,371.021576 652.757324,369.876099 654.511414,367.928894 
	C655.492188,369.774963 656.199402,371.106232 657.209656,373.007904 
	C664.846130,359.031464 671.885620,346.092163 678.977600,333.181671 
	C687.644104,317.405029 696.354675,301.652527 705.046204,285.889618 
	C719.494934,294.229340 733.948303,302.560974 748.390686,310.911621 
	C758.127136,316.541168 767.757080,322.363831 777.620667,327.760132 
	C781.573059,329.922485 783.147095,332.417297 783.120300,337.090637 
	C782.919678,372.081238 783.038452,407.073639 783.032471,442.898315 
	C771.986755,464.548035 760.965759,485.364899 749.545898,506.935211 
	C732.478088,482.060364 716.242615,458.332245 699.935913,434.653076 
	C685.992920,414.406433 671.968262,394.216034 657.908813,373.778931 
	C657.593506,373.715851 657.349243,373.874603 656.850159,374.241272 
	C656.093750,375.403717 655.592102,376.358215 654.717957,377.399414 
	C652.885559,376.279907 651.425720,375.073639 649.965942,373.867371 
z"/>
<path fill="#00ADB5" opacity="1.000000" stroke="none" 
	d="
M524.166077,603.993896 
	C510.045532,595.640503 495.920776,587.294189 481.806610,578.929993 
	C476.442657,575.751282 471.103027,572.531616 465.398560,568.800232 
	C467.529419,562.520020 469.869415,556.702332 472.525299,551.032715 
	C481.073273,532.784912 489.738159,514.591858 498.357147,496.377319 
	C502.357147,487.924194 506.355225,479.470184 510.591675,470.514465 
	C511.640015,471.681244 512.299377,472.363342 512.901428,473.092773 
	C529.378418,493.055084 545.849670,513.022156 562.617676,533.278687 
	C563.031677,534.067871 563.149841,534.566833 562.875732,535.161011 
	C554.303467,550.192566 546.180847,565.160645 537.920776,580.052490 
	C533.457031,588.100159 528.758606,596.017639 524.166077,603.993896 
z"/>
<path fill="#EBEDED" opacity="1.000000" stroke="none" 
	d="
M524.086853,604.354736 
	C528.758606,596.017639 533.457031,588.100159 537.920776,580.052490 
	C546.180847,565.160645 554.303467,550.192566 562.906006,535.158813 
	C563.328735,535.061462 563.446899,535.032043 563.446899,535.032043 
	C564.505615,536.032654 565.564331,537.033264 566.913269,538.308167 
	C567.908020,536.808777 568.776367,535.499878 570.005981,533.646423 
	C594.584778,563.538574 618.980286,593.207764 643.823853,623.319397 
	C652.478638,633.594238 660.685486,643.426636 669.171692,653.593750 
	C671.471252,648.999207 673.324768,645.023560 675.411072,641.174072 
	C684.847717,623.762329 694.350159,606.386292 703.828857,588.997314 
	C709.878723,578.324158 716.019531,567.701294 721.956360,556.965698 
	C729.988281,542.441589 737.863708,527.830811 746.075806,512.762756 
	C747.443848,514.230286 748.499451,515.362610 749.794067,516.751404 
	C750.832703,515.518188 751.844116,514.317200 753.317566,512.567688 
	C761.037476,523.729553 768.637329,534.717896 776.535339,545.849976 
	C788.194519,562.527588 799.595093,579.034485 810.908020,595.601318 
	C831.406189,625.619080 851.818420,655.695496 872.340637,685.696777 
	C878.585205,694.825745 885.072937,703.788391 891.337158,712.668091 
	C887.390503,717.314941 885.114197,716.023499 882.406006,711.993713 
	C864.312500,685.071106 846.073303,658.245728 827.771057,631.464233 
	C812.588684,609.248169 797.260925,587.131531 781.984192,564.980164 
	C778.560974,560.016541 775.081543,555.091614 771.304871,549.640625 
	C764.183228,538.844299 757.384705,528.556213 750.047485,517.453003 
	C741.489075,533.184021 733.516785,547.706909 725.682068,562.303589 
	C722.576233,568.089844 719.775574,574.039978 716.835999,579.915466 
	C716.835999,579.915466 716.926208,579.934875 716.635559,579.835815 
	C716.185913,580.102905 716.026855,580.469177 715.867798,580.835388 
	C707.937073,595.436951 700.015686,610.043579 692.072205,624.638184 
	C686.539612,634.803223 681.077820,645.008972 675.367920,655.073730 
	C673.578674,658.227600 674.298462,660.421692 676.404724,662.976746 
	C689.851196,679.288879 703.157166,695.716736 716.590820,712.039429 
	C726.495239,724.074036 736.556458,735.979431 746.479614,747.998840 
	C750.327332,752.659363 753.987488,757.474792 757.434875,762.598694 
	C754.813293,762.987366 752.489929,762.997131 750.166504,763.006836 
	C723.587097,730.578125 697.007690,698.149414 670.054077,665.264099 
	C654.906860,692.996948 640.153625,720.008545 624.846802,747.052612 
	C623.194397,745.336243 622.095581,743.587402 620.996765,741.838562 
	C632.554749,720.474365 644.094238,699.100159 655.684937,677.753723 
	C658.249207,673.031067 661.278137,668.536804 663.510864,663.670227 
	C664.350708,661.839539 664.446289,658.534607 663.332947,657.121948 
	C655.317383,646.951416 646.903992,637.094421 638.296509,626.640625 
	C637.491028,625.296814 637.114624,624.361145 636.504639,623.617126 
	C618.480957,601.634033 600.438599,579.666321 582.388123,557.705200 
	C577.370911,551.601013 572.318909,545.525452 566.898621,538.972168 
	C563.666565,544.889709 560.796265,550.085754 557.980469,555.311218 
	C548.699951,572.534058 539.439209,589.767456 530.170898,606.996765 
	C522.095520,622.097168 514.118896,637.251404 505.922211,652.285706 
	C492.886932,676.194824 479.664856,700.002136 466.598175,723.894348 
	C457.053070,741.347473 447.630829,758.867737 437.685089,776.571899 
	C436.087097,774.858337 434.957764,772.930847 433.828430,771.003418 
	C438.654297,761.767761 443.390503,752.483765 448.331543,743.310120 
	C453.121338,734.417175 458.164978,725.661438 463.021606,716.803955 
	C479.010345,687.643799 494.985474,658.476135 510.919067,629.285828 
	C515.364929,621.141052 519.649231,612.908020 524.086853,604.354736 
M667.081238,660.224670 
	C667.776367,661.498596 668.471497,662.772522 669.166626,664.046448 
	C669.984070,663.558167 670.801575,663.069824 671.619019,662.581482 
	C671.153320,660.336121 670.687622,658.090759 670.221863,655.845337 
	C669.657837,655.908386 669.093811,655.971375 668.529724,656.034424 
	C668.030273,657.176636 667.530762,658.318909 667.081238,660.224670 
z"/>
<path fill="#00ADB5" opacity="1.000000" stroke="none" 
	d="
M596.951965,285.748871 
	C596.962891,285.447754 596.972900,285.146576 597.319031,284.454834 
	C599.124817,281.117981 600.630615,278.189545 602.055420,275.222168 
	C608.327576,262.159210 614.576416,249.085052 620.833740,236.014923 
	C643.235535,249.184799 665.635132,262.358459 688.041382,275.520782 
	C691.721985,277.682861 695.431702,279.795166 699.483521,282.314026 
	C684.625916,310.662323 669.412781,338.627106 653.933411,367.081268 
	C652.634949,365.351501 651.814026,364.336853 651.077209,363.264496 
	C638.648254,345.176453 626.289978,327.039459 613.781250,309.006866 
	C608.328064,301.145569 602.570984,293.495087 596.951965,285.748871 
z"/>
<path fill="#00ADB5" opacity="1.000000" stroke="none" 
	d="
M530.470093,607.152527 
	C539.439209,589.767456 548.699951,572.534058 557.980469,555.311218 
	C560.796265,550.085754 563.666565,544.889709 566.898621,538.972168 
	C572.318909,545.525452 577.370911,551.601013 582.388123,557.705200 
	C600.438599,579.666321 618.480957,601.634033 636.504639,623.617126 
	C637.114624,624.361145 637.491028,625.296814 637.985107,626.488464 
	C627.752686,632.846130 617.464661,638.781006 607.292053,644.907532 
	C602.991394,647.497620 599.054504,647.479431 594.734558,644.921143 
	C573.452026,632.317200 552.098022,619.834045 530.470093,607.152527 
z"/>
<path fill="#E7ECEC" opacity="1.000000" stroke="none" 
	d="
M418.539429,347.855042 
	C423.244293,353.763214 427.482574,359.667816 432.074829,365.282959 
	C457.114441,395.900024 482.241760,426.445404 507.333252,457.020081 
	C507.747192,457.524445 508.090546,458.086792 509.204651,459.671783 
	C536.353577,401.764648 563.234192,344.429810 590.511597,286.248657 
	C591.858276,287.731628 592.757751,288.722137 593.799683,290.309723 
	C593.957642,291.259369 593.973145,291.611908 593.988647,291.964478 
	C586.329407,308.488220 578.702087,325.026825 571.002808,341.531860 
	C561.624878,361.635376 552.224609,381.728760 542.762756,401.792877 
	C534.081299,420.202087 525.299072,438.563782 516.580017,456.955322 
	C515.737610,458.732300 515.027405,460.571960 513.785767,462.672058 
	C512.968750,462.951691 512.621826,462.941711 512.274841,462.931763 
	C511.419128,461.932159 510.563416,460.932556 509.541138,459.738373 
	C508.409790,461.763641 507.528351,463.341522 506.471619,465.233246 
	C492.931854,448.733887 479.580963,432.408569 466.167877,416.134460 
	C450.754608,397.433380 435.286285,378.777710 419.503357,360.057922 
	C413.564301,352.968445 408.009857,345.886139 402.352417,338.887085 
	C393.911652,328.444519 385.418549,318.044037 376.909973,307.656616 
	C368.803955,297.760529 360.621246,287.927307 352.523254,278.024750 
	C340.805054,263.695160 329.176819,249.291779 317.428223,234.987228 
	C306.187836,221.301498 294.841766,207.702560 283.544586,194.063492 
	C281.975769,192.169495 280.444794,190.243652 278.851868,188.370300 
	C277.643341,186.948990 275.512329,185.762894 278.388977,183.839706 
	C280.281586,182.574402 281.248657,180.836975 283.731232,183.962402 
	C297.184723,200.899628 311.015839,217.537872 324.778687,234.228180 
	C337.715576,249.916885 350.791351,265.491364 363.690552,281.210815 
	C375.117676,295.136261 386.341187,309.228607 397.741364,323.176331 
	C404.485901,331.428009 411.398926,339.541962 418.539429,347.855042 
z"/>
<path fill="#ECEDEE" opacity="1.000000" stroke="none" 
	d="
M655.090515,377.312683 
	C655.592102,376.358215 656.093750,375.403717 657.068848,374.233887 
	C657.542419,374.018494 657.979736,374.000732 657.979736,374.000732 
	C671.968262,394.216034 685.992920,414.406433 699.935913,434.653076 
	C716.242615,458.332245 732.478088,482.060364 749.545898,506.935211 
	C760.965759,485.364899 771.986755,464.548035 783.085999,443.364075 
	C788.392761,433.821014 793.749146,424.715179 798.825256,415.455688 
	C812.933777,389.720184 826.976013,363.947998 840.946594,338.137360 
	C850.727478,320.067383 860.248413,301.856476 870.064270,283.805786 
	C883.071838,259.885895 896.265015,236.067093 909.353088,212.190903 
	C912.801819,205.899445 916.156982,199.556717 919.695007,192.977417 
	C921.372375,193.761765 923.089111,194.564545 925.441650,195.664642 
	C922.224060,201.980606 919.218262,208.224106 915.910217,214.303207 
	C908.896545,227.192383 901.686279,239.974396 894.627075,252.839020 
	C880.741882,278.143341 866.867432,303.453705 853.061096,328.801056 
	C844.169678,345.124878 835.456787,361.545990 826.575623,377.875519 
	C812.552185,403.660095 798.451904,429.402924 784.397949,455.170990 
	C783.855591,456.165344 783.456787,457.237915 782.913086,458.638428 
	C780.114990,463.412476 777.220703,467.725464 774.707703,472.250183 
	C767.553894,485.130646 760.555542,498.097473 753.386414,511.231110 
	C751.224121,510.553436 749.634888,505.026276 746.761475,510.725891 
	C746.127747,511.050751 745.956360,511.068878 745.785034,511.087006 
	C734.281006,494.474243 722.737793,477.888489 711.281860,461.242615 
	C692.572571,434.057312 673.920166,406.832855 655.141846,379.025940 
	C655.056824,378.055542 655.073669,377.684113 655.090515,377.312683 
z"/>
<path fill="#EBEDED" opacity="1.000000" stroke="none" 
	d="
M562.321838,532.988403 
	C545.849670,513.022156 529.378418,493.055084 512.901428,473.092773 
	C512.299377,472.363342 511.640015,471.681244 510.591675,470.514465 
	C506.355225,479.470184 502.357147,487.924194 498.357147,496.377319 
	C489.738159,514.591858 481.073273,532.784912 472.525299,551.032715 
	C469.869415,556.702332 467.529419,562.520020 465.107910,568.633606 
	C455.762970,589.038452 446.366089,609.084778 436.940186,629.117432 
	C434.026031,635.310791 430.997498,641.450317 428.081787,647.642944 
	C416.352051,672.555420 404.646912,697.479492 392.931000,722.398438 
	C383.367859,742.738464 373.769012,763.061829 364.255157,783.424927 
	C360.746307,790.935120 357.435425,798.537842 353.578522,806.538208 
	C350.747314,806.931641 348.371857,806.885315 345.996429,806.838989 
	C358.081055,781.025513 370.140076,755.200073 382.260803,729.403564 
	C388.569977,715.975769 395.023010,702.615662 401.349670,689.195984 
	C414.414154,661.484680 427.451111,633.760437 440.471771,606.028503 
	C446.627441,592.917969 452.719452,579.777588 459.003235,566.322266 
	C466.107788,551.220032 473.029205,536.436707 479.997406,521.675415 
	C485.486023,510.048340 491.053223,498.458374 496.544922,486.832764 
	C499.779816,479.984650 502.935547,473.099091 506.296570,465.865021 
	C507.793945,467.149292 508.991852,468.176697 510.439270,469.418121 
	C511.538422,467.891022 512.467773,466.599884 513.674255,464.923645 
	C530.782043,485.777161 547.807983,506.530884 564.918579,527.944702 
	C564.997070,529.054932 564.990845,529.505127 564.984680,529.955261 
	C564.557617,530.827332 564.130493,531.699463 563.261292,532.760376 
	C562.819153,532.949280 562.321838,532.988403 562.321838,532.988403 
z"/>
<path fill="#E6ECEC" opacity="1.000000" stroke="none" 
	d="
M621.001343,235.681427 
	C614.576416,249.085052 608.327576,262.159210 602.055420,275.222168 
	C600.630615,278.189545 599.124817,281.117981 597.325439,284.228912 
	C596.011169,283.091125 595.027588,281.788696 593.712463,280.047211 
	C592.653687,281.864532 591.801270,283.327637 590.611572,285.369720 
	C583.545166,275.057861 576.787170,265.124786 569.941956,255.252167 
	C567.983704,252.427887 565.773071,249.778656 563.335083,246.946533 
	C557.012451,237.753983 551.146240,228.587006 545.031433,219.589020 
	C528.719910,195.586731 512.309204,171.651810 495.923370,147.700043 
	C479.257935,123.339493 462.604401,98.970711 445.890808,74.643242 
	C432.404846,55.013729 418.831726,35.444130 405.317230,15.834174 
	C404.325623,14.395325 403.496399,12.844556 402.497223,11.189274 
	C404.171600,9.948797 405.440430,9.008773 407.002502,7.851486 
	C407.911682,8.686365 409.054077,9.404890 409.753021,10.426758 
	C420.523499,26.173552 431.224701,41.967697 441.964996,57.735191 
	C463.074951,88.726089 484.138489,119.748863 505.338593,150.678009 
	C519.727539,171.670288 534.316223,192.525635 548.815918,213.442017 
	C555.501282,223.085953 562.187561,232.729355 569.015503,243.029785 
	C577.172302,255.473892 585.187073,267.261200 593.583252,279.609528 
	C599.323853,267.412537 604.778137,255.941391 610.115479,244.416138 
	C611.842773,240.686066 613.263306,236.813919 614.824097,233.006775 
	C621.107666,219.809525 627.391174,206.612305 633.862610,193.020447 
	C635.830505,193.981339 637.457214,194.775650 639.618225,195.830841 
	C633.375061,209.203293 627.272034,222.275604 621.001343,235.681427 
z"/>
<path fill="#00ADB5" opacity="1.000000" stroke="none" 
	d="
M620.533386,741.891785 
	C622.095581,743.587402 623.194397,745.336243 624.565063,747.313599 
	C630.587036,761.545166 636.337158,775.548157 642.087280,789.551208 
	C642.391541,789.489502 642.695740,789.427856 643.000000,789.366150 
	C643.000000,776.123230 642.953796,762.880005 643.042236,749.637695 
	C643.058350,747.227600 643.105774,743.005981 644.031128,742.741333 
	C647.264099,741.816956 650.898010,742.104736 654.353760,742.329529 
	C654.959778,742.368958 655.907349,744.321716 655.911621,745.394043 
	C656.003967,768.388000 655.966492,791.382446 656.012390,814.376648 
	C656.017273,816.822083 655.286133,818.236267 652.604675,817.983093 
	C652.439941,817.967529 652.271484,817.982971 652.105225,817.991760 
	C641.089050,818.571350 641.264771,818.501648 637.013306,807.798462 
	C631.523376,793.977539 625.717346,780.282227 619.283264,766.559875 
	C619.188843,767.891174 619.014282,769.222290 619.012390,770.553650 
	C618.991760,784.716858 618.861633,798.882263 619.084778,813.041992 
	C619.148254,817.068054 617.784119,818.507446 613.937927,818.020325 
	C612.789856,817.874939 611.593323,817.877136 610.444336,818.017944 
	C606.878357,818.454895 605.882446,816.829407 605.940063,813.426941 
	C606.100464,803.932556 605.963318,794.433167 605.979065,784.052063 
	C606.064575,778.110657 606.114624,773.052856 606.164673,767.995117 
	C606.112854,760.581848 606.127869,753.167114 605.973938,745.755981 
	C605.917236,743.028748 606.892883,741.867188 609.690308,741.974243 
	C613.144775,742.106628 616.609619,741.967102 620.533386,741.891785 
z"/>
<path fill="#00ADB5" opacity="1.000000" stroke="none" 
	d="
M582.000000,806.968506 
	C582.000000,808.129089 582.000183,808.795044 582.000000,809.460999 
	C581.998230,818.042786 579.573303,819.973694 571.063416,817.853821 
	C569.943970,817.575073 569.104248,816.173523 568.587097,815.703186 
	C564.028076,816.802124 559.522888,818.299133 554.899719,818.924255 
	C541.721985,820.706177 530.521851,807.554565 529.881226,794.846985 
	C529.406921,785.439941 530.821289,777.063843 536.897095,769.457214 
	C543.012634,761.800903 557.218384,759.488098 564.990173,764.473328 
	C566.053833,765.155579 567.269287,765.601257 568.781982,766.334717 
	C568.781982,761.891235 568.781982,757.946167 568.781982,753.396851 
	C565.801086,753.172729 562.900513,752.954651 559.030762,752.663757 
	C559.030762,750.097961 558.728882,747.479553 559.167297,744.991638 
	C559.364990,743.869934 560.998779,742.213196 562.048462,742.161133 
	C567.695007,741.881470 573.363281,742.076843 579.023010,742.013611 
	C582.492920,741.974915 581.977966,744.449768 581.982178,746.537720 
	C582.010193,760.356323 581.998840,774.174866 581.999939,787.993469 
	C582.000366,794.153564 582.000000,800.313721 582.000000,806.968506 
M567.171021,776.587280 
	C563.313416,775.620667 559.298157,773.449219 555.629822,773.929138 
	C547.042847,775.052734 541.948608,782.076782 542.145081,790.653381 
	C542.365356,800.265503 547.116333,805.970764 556.252747,807.594360 
	C563.760559,808.928650 568.995178,804.612000 568.999695,797.081177 
	C569.001587,793.917847 569.145203,790.746033 568.961243,787.593445 
	C568.755249,784.061829 568.251221,780.547546 567.171021,776.587280 
z"/>
<path fill="#00ADB5" opacity="1.000000" stroke="none" 
	d="
M245.220306,809.717285 
	C242.532516,803.751221 239.121552,798.249023 237.857452,792.291382 
	C234.993057,778.791687 235.765045,765.392273 242.572968,752.881897 
	C248.452087,742.078308 261.573486,736.855469 272.843048,741.164001 
	C275.521301,742.187988 277.782867,744.301819 280.213440,745.899536 
	C281.819458,741.595947 283.811493,741.029419 292.948486,742.719849 
	C292.948486,751.173950 293.031036,759.779419 292.823944,768.377869 
	C292.802643,769.262268 291.128967,770.716187 290.087585,770.848511 
	C287.335693,771.198303 284.510010,770.966980 281.945007,770.966980 
	C280.915863,767.096252 280.199951,763.738892 279.123352,760.501465 
	C277.240112,754.838684 272.668793,751.782166 267.215118,751.391296 
	C261.854156,751.006958 256.998230,753.117859 254.019455,758.401428 
	C249.694534,766.072693 248.628494,774.439392 249.324585,782.849182 
	C249.804047,788.641541 251.470337,794.515930 253.622421,799.951355 
	C257.876556,810.695984 274.502899,809.149231 278.476654,801.190186 
	C280.164429,797.809692 282.123138,794.564453 284.367004,790.522278 
	C286.744629,791.343872 289.701202,792.107910 292.368378,793.448120 
	C293.141541,793.836548 293.670776,796.067932 293.322296,797.129700 
	C286.919708,816.637512 274.507477,822.464661 255.741470,817.534790 
	C251.919952,816.530823 248.874817,812.571411 245.220306,809.717285 
z"/>
<path fill="#00ADB5" opacity="1.000000" stroke="none" 
	d="
M867.978455,795.000000 
	C856.856262,795.000000 846.229553,795.000000 835.384399,795.000000 
	C835.365784,801.123901 838.929077,804.359253 843.484131,806.040833 
	C852.699585,809.443115 861.258240,807.619080 869.177185,800.765503 
	C871.418701,803.732666 873.549072,806.552795 875.690063,809.387085 
	C871.638367,815.044312 865.925110,817.626282 859.615234,818.591797 
	C842.939575,821.143555 827.492310,815.739990 822.868469,799.482971 
	C818.770447,785.075134 823.408569,770.467590 837.837402,764.247559 
	C849.796326,759.092163 866.870850,760.733521 875.061890,774.672241 
	C878.523071,780.561951 880.878967,786.906006 879.568542,795.000000 
	C875.932190,795.000000 872.203125,795.000000 867.978455,795.000000 
M862.642700,783.992249 
	C865.743347,784.143433 865.312744,782.693420 864.317017,780.647705 
	C861.147888,774.136353 850.370544,771.323853 842.578552,775.244385 
	C839.199890,776.944397 835.779541,778.868042 835.923462,783.998169 
	C844.621338,783.998169 853.216858,783.998169 862.642700,783.992249 
z"/>
<path fill="#E6ECEC" opacity="1.000000" stroke="none" 
	d="
M594.342651,291.967896 
	C593.973145,291.611908 593.957642,291.259369 593.927917,290.642517 
	C594.861511,289.068665 595.809387,287.759125 596.854614,286.099213 
	C602.570984,293.495087 608.328064,301.145569 613.781250,309.006866 
	C626.289978,327.039459 638.648254,345.176453 651.077209,363.264496 
	C651.814026,364.336853 652.634949,365.351501 653.933411,367.081268 
	C669.412781,338.627106 684.625916,310.662323 699.831177,282.352295 
	C715.959595,252.403656 732.095886,222.800278 748.257568,193.150330 
	C750.171448,194.123489 751.881653,194.993057 754.165649,196.154419 
	C737.784546,226.007874 721.532837,255.625519 705.163696,285.566406 
	C696.354675,301.652527 687.644104,317.405029 678.977600,333.181671 
	C671.885620,346.092163 664.846130,359.031464 657.209656,373.007904 
	C656.199402,371.106232 655.492188,369.774963 654.511414,367.928894 
	C652.757324,369.876099 651.725403,371.021576 650.337219,372.231659 
	C631.918823,345.856232 613.857971,319.415283 595.783020,292.984009 
	C595.510315,292.585266 595.062622,292.306244 594.342651,291.967896 
z"/>
<path fill="#00ADB5" opacity="1.000000" stroke="none" 
	d="
M923.861023,807.957520 
	C927.354126,807.289246 930.503723,806.898499 933.427368,805.867004 
	C934.706238,805.415771 936.328857,803.650818 936.323364,802.489258 
	C936.317871,801.324097 934.664062,799.450256 933.413269,799.128357 
	C927.197693,797.528992 920.796387,796.626892 914.620422,794.905579 
	C910.421692,793.735413 905.979858,792.313232 902.530273,789.793823 
	C892.865662,782.735413 896.537292,770.812622 905.625488,765.753235 
	C915.417175,760.302246 925.701477,761.272522 936.056091,763.554321 
	C937.336731,763.836609 938.548889,764.424744 939.798218,764.855347 
	C946.567017,767.188660 946.871033,768.200256 943.927917,774.387024 
	C942.311707,777.784546 940.701843,777.998779 937.451843,776.324402 
	C930.268066,772.623291 922.460083,772.865234 914.785767,774.372009 
	C913.050598,774.712585 911.689087,776.956726 910.155640,778.324707 
	C911.540222,779.534912 912.752441,781.441528 914.339233,781.834167 
	C921.050293,783.494690 927.919800,784.509949 934.640808,786.135803 
	C941.030457,787.681641 947.045593,789.940857 948.954041,797.414185 
	C951.293518,806.575745 945.531860,815.725342 935.132385,817.897583 
	C921.215759,820.804504 907.808655,819.210205 894.959412,811.196411 
	C896.626160,807.874756 898.283936,804.570984 899.596924,801.954224 
	C907.951172,804.065002 915.688477,806.019958 923.861023,807.957520 
z"/>
<path fill="#00ADB5" opacity="1.000000" stroke="none" 
	d="
M688.123047,765.974487 
	C702.219482,758.677246 716.809631,760.447632 726.584534,771.229553 
	C734.922363,780.426392 734.901917,791.638855 730.978943,802.467285 
	C727.064758,813.271545 718.386047,818.266846 706.816162,819.094727 
	C689.941772,820.302185 679.020142,810.318237 676.407776,798.550964 
	C673.528809,785.582336 676.725891,774.373962 688.123047,765.974487 
M703.630981,807.923035 
	C715.712463,805.446472 718.916626,802.455994 720.250732,791.353271 
	C721.011353,785.023010 718.623657,779.629211 713.174805,776.155457 
	C707.656250,772.637390 701.678711,772.176514 695.961914,775.705627 
	C689.863037,779.470337 687.810303,785.601929 688.320984,792.284668 
	C688.989746,801.033936 693.978577,806.387573 703.630981,807.923035 
z"/>
<path fill="#00ADB5" opacity="1.000000" stroke="none" 
	d="
M433.544128,770.840942 
	C434.957764,772.930847 436.087097,774.858337 437.525482,776.896423 
	C438.451508,783.856323 440.354401,790.890625 439.400848,797.513794 
	C437.739746,809.051025 430.080444,816.701538 418.548889,818.493042 
	C405.154480,820.573853 394.940552,819.057190 386.905304,806.434692 
	C380.488770,796.355103 380.649353,785.410583 386.567383,775.087463 
	C391.738953,766.066467 399.973358,762.022278 410.498077,761.900330 
	C419.417145,761.797119 427.163025,763.877869 433.544128,770.840942 
M425.997986,783.287598 
	C422.808258,776.660339 415.883057,772.976379 409.919891,773.428223 
	C400.311707,774.156067 393.420410,783.993164 395.877838,794.681213 
	C397.664246,802.450867 403.218079,808.099731 410.817200,807.814392 
	C418.504822,807.525818 424.919312,804.335693 427.607086,793.630188 
	C427.126434,790.415649 426.645782,787.201050 425.997986,783.287598 
z"/>
<path fill="#00ADB5" opacity="1.000000" stroke="none" 
	d="
M750.111694,763.462524 
	C752.489929,762.997131 754.813293,762.987366 757.570007,762.908203 
	C761.152649,763.508850 762.142639,762.079590 762.034546,759.068726 
	C761.879272,754.743713 762.124878,750.404114 761.965088,746.079468 
	C761.856079,743.131653 762.821716,741.911987 765.936768,741.957031 
	C777.005737,742.117126 774.870544,741.281250 774.967346,750.444702 
	C775.099854,762.998962 775.001831,763.000000 787.451294,763.000000 
	C788.117554,763.000000 788.783875,762.999939 789.450134,763.000000 
	C799.025696,763.001160 799.357605,763.433533 797.218628,773.966431 
	C790.140198,773.966431 782.907776,773.966431 775.000183,773.966431 
	C775.000183,777.067322 775.000183,779.508301 774.648132,782.628906 
	C774.586243,786.872253 774.876343,790.436035 775.166443,793.999878 
	C775.112732,794.995361 775.049316,795.990356 775.006897,796.986328 
	C774.807373,801.672974 775.940979,805.587769 781.086487,806.989685 
	C786.263000,808.399963 790.360107,806.584534 793.044373,801.804077 
	C794.923462,798.457581 801.743835,797.208557 804.333496,799.943787 
	C805.022034,800.671082 805.088135,802.339539 804.900635,803.487854 
	C803.594055,811.490295 794.789307,818.682373 786.630615,819.053162 
	C777.843201,819.452515 769.911011,817.954285 765.288574,809.627502 
	C763.514893,806.432495 762.454407,802.557800 762.140381,798.900818 
	C761.629822,792.956543 762.007812,786.936462 761.997925,780.948425 
	C761.986877,774.268616 761.850952,774.148987 754.892151,773.992493 
	C753.572693,773.962891 752.255127,773.853149 750.056946,773.731750 
	C750.056946,770.397461 750.056946,767.157776 750.111694,763.462524 
z"/>
<path fill="#00ADB5" opacity="1.000000" stroke="none" 
	d="
M495.991760,811.164795 
	C495.300751,810.938660 494.287903,810.799194 493.977448,811.201538 
	C488.497528,818.304871 480.557129,820.777588 471.850006,818.452637 
	C464.505463,816.491394 460.842834,811.022705 460.288727,804.425537 
	C459.220215,791.703735 459.310364,778.879822 459.154755,766.095398 
	C459.142487,765.085632 460.840088,763.316101 461.934998,763.147644 
	C471.342468,761.700500 471.912781,762.355103 472.024872,771.927307 
	C472.131775,781.053894 471.663696,790.284363 472.886230,799.273621 
	C474.115479,808.312439 483.778168,811.027893 489.990906,804.126587 
	C493.061798,800.715393 495.189911,795.574707 495.743347,790.975647 
	C496.672180,783.257019 496.142334,775.342285 495.939850,767.517456 
	C495.849854,764.041687 497.005188,762.856323 500.500732,762.941772 
	C510.536041,763.186768 508.913605,762.258057 508.974365,771.011292 
	C509.070343,784.838318 508.826385,798.669861 509.099396,812.492188 
	C509.186523,816.905640 507.902374,818.605896 503.485535,818.048645 
	C501.238190,817.765015 498.925537,817.999023 495.996887,817.999023 
	C495.996887,815.397705 495.996887,813.450745 495.991760,811.164795 
z"/>
<path fill="#00ADB5" opacity="1.000000" stroke="none" 
	d="
M345.677124,806.579224 
	C348.371857,806.885315 350.747314,806.931641 353.563232,806.908325 
	C359.667175,807.984436 356.176270,812.404785 356.746826,815.271912 
	C356.871002,815.896118 354.320312,817.331970 352.815674,817.910278 
	C351.661530,818.353882 350.214905,818.036438 348.015594,818.042969 
	C345.088654,818.074341 343.044525,818.120300 341.000366,818.166260 
	C335.842133,818.110596 330.665314,817.762451 325.531311,818.088379 
	C321.149048,818.366699 319.300476,816.964905 319.977814,812.519470 
	C320.221191,810.922363 320.192871,809.283752 320.285370,807.718506 
	C321.075470,807.432434 321.521179,807.153320 321.984253,807.120667 
	C331.999603,806.416199 332.000122,806.421509 331.999969,796.525879 
	C331.999817,783.873962 331.831879,771.218567 332.092102,758.571960 
	C332.180450,754.277466 331.084442,752.321838 326.558411,752.956116 
	C324.645264,753.224243 322.663208,753.000854 320.360321,753.000854 
	C320.360321,749.159973 320.360321,745.942566 320.360321,742.054993 
	C327.876709,742.054993 335.146454,741.990784 342.414246,742.082520 
	C345.958282,742.127258 344.948547,745.014709 344.956207,746.929443 
	C345.027252,764.741760 344.988068,782.554443 345.015686,800.367065 
	C345.018768,802.351318 345.238556,804.335266 345.677124,806.579224 
z"/>
<path fill="#01ADB5" opacity="1.000000" stroke="none" 
	d="
M717.207520,579.915588 
	C719.775574,574.039978 722.576233,568.089844 725.682068,562.303589 
	C733.516785,547.706909 741.489075,533.184021 750.047485,517.453003 
	C757.384705,528.556213 764.183228,538.844299 770.988525,549.483337 
	C760.800781,555.581116 750.607849,561.330750 740.411133,567.073792 
	C732.803040,571.358887 725.189941,575.635376 717.207520,579.915588 
z"/>
<path fill="#01ADB5" opacity="1.000000" stroke="none" 
	d="
M614.534546,232.838013 
	C613.263306,236.813919 611.842773,240.686066 610.115479,244.416138 
	C604.778137,255.941391 599.323853,267.412537 593.583252,279.609528 
	C585.187073,267.261200 577.172302,255.473892 569.166870,243.346649 
	C577.887512,238.057892 586.713135,233.296295 595.260193,228.078415 
	C599.313049,225.604233 602.773499,225.286484 606.658447,228.076645 
	C609.052124,229.795746 611.707275,231.150757 614.534546,232.838013 
z"/>
<path fill="#EEEEEE" opacity="1.000000" stroke="none" 
	d="
M340.855103,818.482239 
	C343.044525,818.120300 345.088654,818.074341 347.566528,818.097290 
	C345.110413,824.522034 342.286346,830.908875 339.316650,837.227295 
	C333.774750,849.018372 328.148163,860.769653 322.481720,872.695557 
	C320.741608,871.812744 318.919678,870.888367 316.674469,869.749329 
	C324.793121,852.539062 332.751465,835.668701 340.855103,818.482239 
z"/>
<path fill="#EBEDED" opacity="1.000000" stroke="none" 
	d="
M606.086243,768.358276 
	C606.114624,773.052856 606.064575,778.110657 605.926025,783.586304 
	C603.660095,787.549866 601.482605,791.095581 599.282654,794.677917 
	C597.624268,793.782776 595.790283,792.792847 593.700317,791.664734 
	C597.932739,783.774841 601.970276,776.248108 606.086243,768.358276 
z"/>
<path fill="#EEEEEE" opacity="1.000000" stroke="none" 
	d="
M775.468384,794.135559 
	C774.876343,790.436035 774.586243,786.872253 774.648560,783.070557 
	C779.317200,788.089478 783.633423,793.346313 788.597168,799.391785 
	C787.047241,800.442566 785.461548,801.517700 783.381653,802.927917 
	C781.067078,800.295410 778.418701,797.283325 775.468384,794.135559 
z"/>
<path fill="#01ADB5" opacity="1.000000" stroke="none" 
	d="
M716.135620,580.788452 
	C716.026855,580.469177 716.185913,580.102905 716.644775,579.790527 
	C716.764221,580.143433 716.583801,580.442505 716.135620,580.788452 
z"/>
<path fill="#E6ECEC" opacity="1.000000" stroke="none" 
	d="
M565.326782,529.777283 
	C564.990845,529.505127 564.997070,529.054932 565.014282,528.267212 
	C568.143860,522.995239 571.541138,518.213257 574.337585,513.102539 
	C599.586060,466.958221 624.729309,420.756287 649.934692,374.219299 
	C651.425720,375.073639 652.885559,376.279907 654.717957,377.399414 
	C655.073669,377.684113 655.056824,378.055542 655.022705,378.705322 
	C650.977112,385.758362 646.735413,392.416412 642.955750,399.327209 
	C622.261414,437.165680 601.683411,475.067780 581.057861,512.943909 
	C577.447327,519.574280 573.800659,526.184998 570.142944,532.855286 
	C568.365906,531.562012 567.017456,530.580688 565.326782,529.777283 
z"/>
<path fill="#E6ECEC" opacity="1.000000" stroke="none" 
	d="
M512.375610,463.163147 
	C512.621826,462.941711 512.968750,462.951691 513.576050,462.957947 
	C513.383057,463.101044 512.929688,463.247803 512.375610,463.163147 
z"/>
<path fill="#47704C" opacity="1.000000" stroke="none" 
	d="
M703.480591,589.033875 
	C694.350159,606.386292 684.847717,623.762329 675.411072,641.174072 
	C673.324768,645.023560 671.471252,648.999207 669.171692,653.593750 
	C660.685486,643.426636 652.478638,633.594238 644.137451,623.461975 
	C663.712769,611.798218 683.422607,600.434326 703.480591,589.033875 
z"/>
<path fill="#E6ECEC" opacity="1.000000" stroke="none" 
	d="
M562.617676,533.278687 
	C562.321838,532.988403 562.819153,532.949280 562.943848,532.947876 
	C562.978760,533.475708 562.888977,534.004883 563.123047,534.783081 
	C563.446899,535.032043 563.328735,535.061462 563.298401,535.063660 
	C563.149841,534.566833 563.031677,534.067871 562.617676,533.278687 
z"/>
<path fill="#E6ECEC" opacity="1.000000" stroke="none" 
	d="
M745.902832,511.287445 
	C745.956360,511.068878 746.127747,511.050751 746.556946,511.014343 
	C746.550049,511.160034 746.285339,511.323944 745.902832,511.287445 
z"/>
<path fill="#E6ECEC" opacity="1.000000" stroke="none" 
	d="
M657.908813,373.778931 
	C657.979736,374.000732 657.542419,374.018494 657.323730,374.025909 
	C657.349243,373.874603 657.593506,373.715851 657.908813,373.778931 
z"/>
<path fill="#47704C" opacity="1.000000" stroke="none" 
	d="
M667.056274,659.842896 
	C667.530762,658.318909 668.030273,657.176636 668.529724,656.034424 
	C669.093811,655.971375 669.657837,655.908386 670.221863,655.845337 
	C670.687622,658.090759 671.153320,660.336121 671.619019,662.581482 
	C670.801575,663.069824 669.984070,663.558167 669.166626,664.046448 
	C668.471497,662.772522 667.776367,661.498596 667.056274,659.842896 
z"/>
<path fill="#47704C" opacity="1.000000" stroke="none" 
	d="
M567.523926,776.806519 
	C568.251221,780.547546 568.755249,784.061829 568.961243,787.593445 
	C569.145203,790.746033 569.001587,793.917847 568.999695,797.081177 
	C568.995178,804.612000 563.760559,808.928650 556.252747,807.594360 
	C547.116333,805.970764 542.365356,800.265503 542.145081,790.653381 
	C541.948608,782.076782 547.042847,775.052734 555.629822,773.929138 
	C559.298157,773.449219 563.313416,775.620667 567.523926,776.806519 
z"/>
<path fill="#47704C" opacity="1.000000" stroke="none" 
	d="
M862.227539,783.995239 
	C853.216858,783.998169 844.621338,783.998169 835.923462,783.998169 
	C835.779541,778.868042 839.199890,776.944397 842.578552,775.244385 
	C850.370544,771.323853 861.147888,774.136353 864.317017,780.647705 
	C865.312744,782.693420 865.743347,784.143433 862.227539,783.995239 
z"/>
<path fill="#47704C" opacity="1.000000" stroke="none" 
	d="
M703.226624,807.876465 
	C693.978577,806.387573 688.989746,801.033936 688.320984,792.284668 
	C687.810303,785.601929 689.863037,779.470337 695.961914,775.705627 
	C701.678711,772.176514 707.656250,772.637390 713.174805,776.155457 
	C718.623657,779.629211 721.011353,785.023010 720.250732,791.353271 
	C718.916626,802.455994 715.712463,805.446472 703.226624,807.876465 
z"/>
<path fill="#47704C" opacity="1.000000" stroke="none" 
	d="
M426.978821,794.139404 
	C424.919312,804.335693 418.504822,807.525818 410.817200,807.814392 
	C403.218079,808.099731 397.664246,802.450867 395.877838,794.681213 
	C393.420410,783.993164 400.311707,774.156067 409.919891,773.428223 
	C415.883057,772.976379 422.808258,776.660339 425.999573,783.999756 
	C421.887939,791.190430 421.887939,791.190430 426.978821,794.139404 
z"/>
<path fill="#E7ECEC" opacity="1.000000" stroke="none" 
	d="
M427.292969,793.884766 
	C421.887939,791.190430 421.887939,791.190430 426.083130,784.349243 
	C426.645782,787.201050 427.126434,790.415649 427.292969,793.884766 
z"/>
</svg>